<?xml version="1.0" standalone="no"?><!DOCTYPE svg PUBLIC "-//W3C//DTD SVG 1.1//EN" "http://www.w3.org/Graphics/SVG/1.1/DTD/svg11.dtd"><svg t="1786033942350" class="icon" viewBox="0 0 1024 1024" version="1.1" xmlns="http://www.w3.org/2000/svg" p-id="15255" xmlns:xlink="http://www.w3.org/1999/xlink" width="200" height="200"><path d="M762 842H262c-83.8 0-152-68.2-152-152V262c0-83.8 68.2-152 152-152h500c83.8 0 152 68.2 152 152v428c0 83.8-68.2 152-152 152zM262 192c-38.7 0-70 31.3-70 70v428c0 38.7 31.3 70 70 70h500c38.7 0 70-31.3 70-70V262c0-38.7-31.3-70-70-70H262z" p-id="15256" fill="#8b6914"></path></svg>